<?xml version="1.0" encoding="UTF-8"?><svg id="Layer_1" xmlns="http://www.w3.org/2000/svg" viewBox="0 0 418.9 408.67"><defs><style>.cls-1{fill:#fff;}.cls-2{fill:#b5170f;}</style></defs><path class="cls-2" d="M201.51,30.01C340.09-.22,400.4,23.12,390.38,78.2c-10.59,58.19-30.22,193.76-39.51,247.83-13.47,78.4-36.82,85.01-81.41,77.82-40.79-6.57-71.26-10.88-104.76-22.45-41.6-14.37-57.23-27.08-70.7-80.96-13.47-53.88-34.17-130.4-39.74-161.49-7.78-43.4-10.48-63.16,40.36-79.48,48.94-15.71,72.52-21.97,106.9-29.47Z"/><path class="cls-1" d="M321.3,45.37c5.32,4.48-3.97,17.39-3.97,17.39l.31,3.79,6.1-.56,36.67,30.44-1.12,14.75s1.54,0,3.47-.01c1.38-1.64,10.62-10.04,10.62-10.04,0,0-7.22,12.69-14.26,21.06-7.04,8.37-12.52,12.47-13.44,11.69-.92-.77,1.15-3.4,1.15-3.4l-54.65-26.22c-2.29-1.1-5.03-.42-6.55,1.61-4.41,5.93-14.13,18.98-26.89,36.13-17.66,23.73-29.39,38.01-29.39,38.01l28.94,30.25c.21-.16.45-.33.71-.52,2.09-1.49,15.19-9.45,18.31-8.92,1.05,2.98-4.55,17.25-5.66,19.56s.55,4.45.55,4.45c0,0,88.51,90.82,95.37,98.38,6.86,7.55,8.79,24.07.17,34.32s-22.57,1.77-22.57,1.77l-115.4-77.06-7.06,8.64.22,1.23s-2.41,3.11-9.26,9.51c-6.85,6.4-11.71,6.19-12.88,5.21-.77-.64-3.74-3.14-5.69-4.79l-.36.43,1.72,1.45-2.31,2.74-1.72-1.45-3.93,4.67c-.72.86-2,.97-2.86.25s-.97-2-.25-2.86l3.93-4.67-1.72-1.45,2.31-2.74,1.72,1.45.36-.43c-1.91-1.61-5.29-4.45-6.12-5.15-1.17-.98-2.2-5.73,2.93-13.58,5.13-7.84,7.79-10.75,7.79-10.75h1.25s4.8-5.7,4.8-5.7l-28.38-18.74s-33.83,40.84-55.1,63c-21.27,22.16-27.99,17.86-31.68,14.76-3.68-3.1-9.07-8.99,9.13-33.74,18.2-24.74,52.64-65.06,52.64-65.06l-23.31-24.75-4.8,5.71.22,1.23s-2.41,3.11-9.26,9.51c-6.85,6.4-11.71,6.19-12.88,5.21-.82-.69-4.2-3.54-6.12-5.15l-.36.43,1.72,1.45-2.31,2.74-1.72-1.45-3.93,4.67c-.72.86-2,.97-2.86.25s-.97-2-.25-2.86l3.93-4.67-1.72-1.45,2.31-2.74,1.72,1.45.36-.43c-1.95-1.64-4.92-4.14-5.69-4.79-1.17-.98-2.2-5.73,2.93-13.58,5.13-7.84,7.79-10.75,7.79-10.75h1.25s7.3-8.42,7.3-8.42L7.93,75.54s-10.74-12.28-2.11-22.54c8.63-10.25,25.23-11.17,33.84-5.71,8.61,5.46,113.24,77.13,113.24,77.13,0,0,2.39,1.27,4.48-.22s15.19-9.45,18.31-8.92c1.05,2.98-4.55,17.25-5.66,19.56-.14.29-.27.55-.39.78l34.75,23.34s12.06-14,32.42-35.46c14.71-15.5,25.91-27.31,30.99-32.67,1.75-1.84,1.94-4.66.47-6.73l-35.18-49.36s-2.23,2.49-3.15,1.71c-.92-.77,2.18-6.87,9.22-15.24,7.04-8.37,18.31-17.65,18.31-17.65,0,0-6.7,10.54-8.08,12.18.32,1.91.58,3.42.58,3.42l14.34-3.63,36.26,30.93.49,6.11,3.79-.35s11.13-11.36,16.45-6.88Z"/><path d="M256.78,155.82l-.1,99.27s2.84-.3,4.34-.2,2.01,2.38,3.41,1.88c.58-.21.54-.43,1.18-.9.9-.67,2.48-1.61,3.24-1.67,1.3-.1,2.79,1.5,3.09,1.5s1-1,2.19-1.1,3.07,1.17,3.76.97.73-.77,1.72-.68,2.1,1.4,2.89,1.3,2.79-1.1,3.49-.9c.33.09,1.72.47,2.92,1.17,1.35.8,2.53,1.93,3.17,1.82,1.2-.2,2.59-2.1,3.69-2.29s5.11.67,6.61.97,6.98,2.64,9.78,2.69c1.17.02,2.67-.97,3.07-1.67s2.44-1.52,4.19-1.85c2.02-.37,4.46-3.14,5.86-2.74s2.02,1.2,2.94,1.1.37-.5,1.97.6,2.69,1.8,3.19,1.8,1.9-.1,3.59.7c1.7.8,3.99,1,4.69.7s2.89-2.29,4.09-2.49,1.66,1.35,3.35,1.35,1.54-.85,2.83-.45,4.89,4.39,5.49,4.09,3.57-1.57,3.89-1.9.9.4,1.6-.6,3.09-3.59,3.79-4.29,1.7-.7,2.99-.1,2.79.9,3.69.9,4.49,4.09,5.39,3.99,2.39.2,3.49-.3,2.24-.8,2.77-1.3,1.82-1.5,4.51-1.5,5.79,1.9,6.58,1.6.9-.8,2.69-.3,3.19,1.2,4.49.9,4.09.2,4.99-.5,1.7-1.2,2.59-1.6,2.39-1.7,2.29-2.89-2.39-4.69-2.39-5.39.8-1.8,1-2.19.1-1.6.3-2,1.11-1,1.1-2.19-2.1-2.89-1.5-4.49,1.7-1.9,2.1-2.49-.7-1.7-.6-2.29-2-3.19-2.69-4.09-.1-4.99,1-5.89,1.9-1.83,1.9-2.51-1.5-2.17-1.5-3.52.34-2.69.79-3.59.86-2.32.82-2.69-1.5-1.8-1.65-2.66.26-1.87,1.2-2.1,1.12.06.82-.8-1.72-4.14-2.02-5.04-1.2-1.09-1.05-2.1,1.68-3.03,1.76-3.29-1.27-1.2-1.57-2.43-.37-1.76.07-2.58,1.68-1.31,1.8-1.83-.67-.67-.82-1.61,1.24-3.48,1.97-4.53,1.07-1.27,1.22-2.24.36-2.06.86-3.03.42-1.31-.26-1.91-2.21-.56-2.28-2.1.07-2.81-.15-3.14-1.23-.19-1.35-.86.71-1.76.94-2.32.26-.9-.07-1.46-1.68-1.87-1.8-2.17,2.13-2.21,2.92-2.62,1.05-1.05.82-1.83-.45-.9-.45-.9l-157.65-.2Z"/><g id="B-25"><path class="cls-1" d="M304.92,194v-16.16c0-4.42-3.58-8.01-8.01-8.01h-27.46v9.78h4.79v48.79h-4.79v9.78h27.46c4.42,0,8.01-3.58,8.01-8.01v-20.17c0-4.42-3.58-8.01-8.01-8.01,4.42,0,8.01-3.58,8.01-8.01ZM293.85,228.41h-8.68v-21.95h8.68v21.95ZM293.85,196.13h-8.68v-16.51h8.68v16.51Z"/><path class="cls-1" d="M350.12,216.82v11.59h-8.68v-11.79c0-1.21.53-2.35,1.45-3.13l15.41-13.1c1.93-1.64,3.04-4.04,3.04-6.57v-15.98c0-4.42-3.58-8.01-8.01-8.01h-15.12c-4.42,0-8.01,3.58-8.01,8.01v11.1h11.22v-9.33h8.68v12.81c0,1.21-.53,2.35-1.45,3.13l-15.41,13.1c-1.93,1.64-3.04,4.04-3.04,6.57v22.96h31.13v-21.37h-11.22Z"/><path class="cls-1" d="M380.57,198.52v-18.9h18.86v-9.78h-29.71v38.34h10.85v-1.61c0-1.96,1.59-3.55,3.55-3.55h5.05v25.39h-8.68v-11.59h-10.78v13.37c0,4.42,3.58,8.01,8.01,8.01h14.67c4.42,0,8.01-3.58,8.01-8.01v-29.72c0-4.42-3.58-8.01-8.01-8.01h-6.51c-2.93,0-5.31,2.38-5.31,5.31v.75Z"/><rect class="cls-1" x="309.79" y="196.67" width="17.81" height="9.78"/></g></svg>