<?xml version="1.0" encoding="UTF-8"?><svg id="Layer_1" xmlns="http://www.w3.org/2000/svg" viewBox="0 0 423.08 180.73"><defs><style>.cls-1{fill:#fff;}</style></defs><path class="cls-1" d="M51.78,175.9l34.56-81.46,34.56,81.46h7.81L168.79,12.21h106.34l-34.81,69.1h-41.73l-3.72,7.38h41.73l-43.93,87.21h8.26l43.93-87.21h69.08v87.21h7.38v-87.21h54.64l37.01,87.21h8.01l-37.14-87.54c20.72-2.53,36.82-20.21,36.82-41.6,0-23.12-18.81-41.93-41.93-41.93h-64.79v76.47h-65.37L287.11,4.83h-124.11l-39.03,159.4-37.63-88.68-37.63,88.68L9.69,4.83H2.09l41.88,171.07h7.81ZM321.33,12.21h57.41c19.05,0,34.55,15.5,34.55,34.55s-15.5,34.55-34.55,34.55h-57.41s0-69.1,0-69.1Z"/></svg>